HIERARCHY
ROOT mixamorig:Hips
{
	OFFSET -0.000008 104.274872 1.554316
	CHANNELS 6 Xposition Yposition Zposition Xrotation Yrotation Zrotation
	JOINT mixamorig:Spine
	{
		OFFSET -0.000005 10.181595 0.131519
		CHANNELS 6 Xposition Yposition Zposition Xrotation Yrotation Zrotation
		JOINT mixamorig:Spine1
		{
			OFFSET -0.000000 9.893959 -1.470707
			CHANNELS 6 Xposition Yposition Zposition Xrotation Yrotation Zrotation
			JOINT mixamorig:Spine2
			{
				OFFSET -0.000000 9.220757 -1.370641
				CHANNELS 6 Xposition Yposition Zposition Xrotation Yrotation Zrotation
				JOINT mixamorig:Neck
				{
					OFFSET 0.000001 16.740417 -2.049036
					CHANNELS 6 Xposition Yposition Zposition Xrotation Yrotation Zrotation
					JOINT mixamorig:Head
					{
						OFFSET 0.000000 9.617874 1.685006
						CHANNELS 6 Xposition Yposition Zposition Xrotation Yrotation Zrotation
						JOINT mixamorig:HeadTop_End
						{
							OFFSET 0.000002 22.037354 7.501101
							CHANNELS 6 Xposition Yposition Zposition Xrotation Yrotation Zrotation
							End Site
							{
								OFFSET 0.000168 2310.654297 -282.823242
							}
						}
					}
				}
				JOINT mixamorig:RightShoulder
				{
					OFFSET -4.569970 11.014908 -2.160885
					CHANNELS 6 Xposition Yposition Zposition Xrotation Yrotation Zrotation
					JOINT mixamorig:RightArm
					{
						OFFSET -10.592851 -0.524811 -2.232101
						CHANNELS 6 Xposition Yposition Zposition Xrotation Yrotation Zrotation
						JOINT mixamorig:RightForeArm
						{
							OFFSET -27.841511 0.000031 -0.000004
							CHANNELS 6 Xposition Yposition Zposition Xrotation Yrotation Zrotation
							JOINT mixamorig:RightHand
							{
								OFFSET -28.328831 -0.000015 0.000015
								CHANNELS 6 Xposition Yposition Zposition Xrotation Yrotation Zrotation
								JOINT mixamorig:RightHandThumb1
								{
									OFFSET -2.464806 -1.573990 2.681852
									CHANNELS 6 Xposition Yposition Zposition Xrotation Yrotation Zrotation
									JOINT mixamorig:RightHandThumb2
									{
										OFFSET -3.215179 -1.872803 1.924282
										CHANNELS 6 Xposition Yposition Zposition Xrotation Yrotation Zrotation
										JOINT mixamorig:RightHandThumb3
										{
											OFFSET -2.654831 -1.527969 1.512609
											CHANNELS 6 Xposition Yposition Zposition Xrotation Yrotation Zrotation
											JOINT mixamorig:RightHandThumb4
											{
												OFFSET -2.018814 -1.152008 1.108052
												CHANNELS 6 Xposition Yposition Zposition Xrotation Yrotation Zrotation
												End Site
												{
													OFFSET -188.809540 -114.533607 132.431396
												}
											}
										}
									}
								}
								JOINT mixamorig:RightHandIndex1
								{
									OFFSET -9.108284 -0.517868 2.259835
									CHANNELS 6 Xposition Yposition Zposition Xrotation Yrotation Zrotation
									JOINT mixamorig:RightHandIndex2
									{
										OFFSET -3.699989 0.000000 0.001215
										CHANNELS 6 Xposition Yposition Zposition Xrotation Yrotation Zrotation
										JOINT mixamorig:RightHandIndex3
										{
											OFFSET -2.850006 0.000031 -0.000522
											CHANNELS 6 Xposition Yposition Zposition Xrotation Yrotation Zrotation
											JOINT mixamorig:RightHandIndex4
											{
												OFFSET -2.772186 -0.000015 -0.000020
												CHANNELS 6 Xposition Yposition Zposition Xrotation Yrotation Zrotation
												End Site
												{
													OFFSET -277.218445 0.000000 -0.050231
												}
											}
										}
									}
								}
								JOINT mixamorig:RightHandMiddle1
								{
									OFFSET -9.532516 -0.000031 -0.000023
									CHANNELS 6 Xposition Yposition Zposition Xrotation Yrotation Zrotation
									JOINT mixamorig:RightHandMiddle2
									{
										OFFSET -3.700005 -0.000015 0.003713
										CHANNELS 6 Xposition Yposition Zposition Xrotation Yrotation Zrotation
										JOINT mixamorig:RightHandMiddle3
										{
											OFFSET -2.949974 0.000015 -0.002054
											CHANNELS 6 Xposition Yposition Zposition Xrotation Yrotation Zrotation
											JOINT mixamorig:RightHandMiddle4
											{
												OFFSET -2.946640 0.000000 -0.000156
												CHANNELS 6 Xposition Yposition Zposition Xrotation Yrotation Zrotation
												End Site
												{
													OFFSET -294.664337 0.000000 -0.113670
												}
											}
										}
									}
								}
								JOINT mixamorig:RightHandRing1
								{
									OFFSET -9.103600 -0.043076 -1.865134
									CHANNELS 6 Xposition Yposition Zposition Xrotation Yrotation Zrotation
									JOINT mixamorig:RightHandRing2
									{
										OFFSET -3.379288 0.000000 -0.001055
										CHANNELS 6 Xposition Yposition Zposition Xrotation Yrotation Zrotation
										JOINT mixamorig:RightHandRing3
										{
											OFFSET -2.889687 -0.000015 0.000379
											CHANNELS 6 Xposition Yposition Zposition Xrotation Yrotation Zrotation
											JOINT mixamorig:RightHandRing4
											{
												OFFSET -2.638809 -0.000015 0.000941
												CHANNELS 6 Xposition Yposition Zposition Xrotation Yrotation Zrotation
												End Site
												{
													OFFSET -263.880371 0.000000 0.516020
												}
											}
										}
									}
								}
								JOINT mixamorig:RightHandPinky1
								{
									OFFSET -8.076683 -0.486710 -3.806280
									CHANNELS 6 Xposition Yposition Zposition Xrotation Yrotation Zrotation
									JOINT mixamorig:RightHandPinky2
									{
										OFFSET -3.600014 -0.000015 -0.003747
										CHANNELS 6 Xposition Yposition Zposition Xrotation Yrotation Zrotation
										JOINT mixamorig:RightHandPinky3
										{
											OFFSET -2.099983 0.000000 -0.005739
											CHANNELS 6 Xposition Yposition Zposition Xrotation Yrotation Zrotation
											JOINT mixamorig:RightHandPinky4
											{
												OFFSET -2.115768 -0.000031 -0.003680
												CHANNELS 6 Xposition Yposition Zposition Xrotation Yrotation Zrotation
												End Site
												{
													OFFSET -211.577087 0.000000 -0.350686
												}
											}
										}
									}
								}
							}
						}
					}
				}
				JOINT mixamorig:LeftShoulder
				{
					OFFSET 4.570447 11.014725 -2.160855
					CHANNELS 6 Xposition Yposition Zposition Xrotation Yrotation Zrotation
					JOINT mixamorig:LeftArm
					{
						OFFSET 10.592371 -0.524597 -2.232119
						CHANNELS 6 Xposition Yposition Zposition Xrotation Yrotation Zrotation
						JOINT mixamorig:LeftForeArm
						{
							OFFSET 27.841532 -0.000031 0.000026
							CHANNELS 6 Xposition Yposition Zposition Xrotation Yrotation Zrotation
							JOINT mixamorig:LeftHand
							{
								OFFSET 28.328846 -0.000061 0.000022
								CHANNELS 6 Xposition Yposition Zposition Xrotation Yrotation Zrotation
								JOINT mixamorig:LeftHandThumb1
								{
									OFFSET 2.466141 -1.576172 2.681732
									CHANNELS 6 Xposition Yposition Zposition Xrotation Yrotation Zrotation
									JOINT mixamorig:LeftHandThumb2
									{
										OFFSET 3.217812 -1.872070 1.916482
										CHANNELS 6 Xposition Yposition Zposition Xrotation Yrotation Zrotation
										JOINT mixamorig:LeftHandThumb3
										{
											OFFSET 2.656029 -1.528778 1.514513
											CHANNELS 6 Xposition Yposition Zposition Xrotation Yrotation Zrotation
											JOINT mixamorig:LeftHandThumb4
											{
												OFFSET 2.020889 -1.154053 1.115139
												CHANNELS 6 Xposition Yposition Zposition Xrotation Yrotation Zrotation
												End Site
												{
													OFFSET 190.885437 -115.081749 130.048782
												}
											}
										}
									}
								}
								JOINT mixamorig:LeftHandIndex1
								{
									OFFSET 9.109314 -0.518021 2.259871
									CHANNELS 6 Xposition Yposition Zposition Xrotation Yrotation Zrotation
									JOINT mixamorig:LeftHandIndex2
									{
										OFFSET 3.699989 0.000000 -0.000322
										CHANNELS 6 Xposition Yposition Zposition Xrotation Yrotation Zrotation
										JOINT mixamorig:LeftHandIndex3
										{
											OFFSET 2.850006 0.000000 0.000352
											CHANNELS 6 Xposition Yposition Zposition Xrotation Yrotation Zrotation
											JOINT mixamorig:LeftHandIndex4
											{
												OFFSET 2.774864 -0.000031 -0.000027
												CHANNELS 6 Xposition Yposition Zposition Xrotation Yrotation Zrotation
												End Site
												{
													OFFSET 277.486267 0.000000 -0.009857
												}
											}
										}
									}
								}
								JOINT mixamorig:LeftHandMiddle1
								{
									OFFSET 9.533394 0.000061 0.000044
									CHANNELS 6 Xposition Yposition Zposition Xrotation Yrotation Zrotation
									JOINT mixamorig:LeftHandMiddle2
									{
										OFFSET 3.699989 -0.000015 -0.000231
										CHANNELS 6 Xposition Yposition Zposition Xrotation Yrotation Zrotation
										JOINT mixamorig:LeftHandMiddle3
										{
											OFFSET 2.949997 -0.000015 -0.000059
											CHANNELS 6 Xposition Yposition Zposition Xrotation Yrotation Zrotation
											JOINT mixamorig:LeftHandMiddle4
											{
												OFFSET 2.952896 0.000031 0.000063
												CHANNELS 6 Xposition Yposition Zposition Xrotation Yrotation Zrotation
												End Site
												{
													OFFSET 295.289337 0.000000 0.022810
												}
											}
										}
									}
								}
								JOINT mixamorig:LeftHandRing1
								{
									OFFSET 9.104523 -0.042999 -1.865074
									CHANNELS 6 Xposition Yposition Zposition Xrotation Yrotation Zrotation
									JOINT mixamorig:LeftHandRing2
									{
										OFFSET 3.150009 -0.000031 0.000043
										CHANNELS 6 Xposition Yposition Zposition Xrotation Yrotation Zrotation
										JOINT mixamorig:LeftHandRing3
										{
											OFFSET 2.949982 -0.000015 0.000040
											CHANNELS 6 Xposition Yposition Zposition Xrotation Yrotation Zrotation
											JOINT mixamorig:LeftHandRing4
											{
												OFFSET 2.644348 0.000000 0.000057
												CHANNELS 6 Xposition Yposition Zposition Xrotation Yrotation Zrotation
												End Site
												{
													OFFSET 264.434631 0.000000 0.012105
												}
											}
										}
									}
								}
								JOINT mixamorig:LeftHandPinky1
								{
									OFFSET 8.077789 -0.486847 -3.806259
									CHANNELS 6 Xposition Yposition Zposition Xrotation Yrotation Zrotation
									JOINT mixamorig:LeftHandPinky2
									{
										OFFSET 3.599953 0.000031 0.014727
										CHANNELS 6 Xposition Yposition Zposition Xrotation Yrotation Zrotation
										JOINT mixamorig:LeftHandPinky3
										{
											OFFSET 2.100021 0.000015 0.007705
											CHANNELS 6 Xposition Yposition Zposition Xrotation Yrotation Zrotation
											JOINT mixamorig:LeftHandPinky4
											{
												OFFSET 2.125504 0.000031 0.007517
												CHANNELS 6 Xposition Yposition Zposition Xrotation Yrotation Zrotation
												End Site
												{
													OFFSET 212.550781 0.000000 0.625752
												}
											}
										}
									}
								}
							}
						}
					}
				}
			}
		}
	}
	JOINT mixamorig:RightUpLeg
	{
		OFFSET -8.207787 -6.751648 -1.599560
		CHANNELS 6 Xposition Yposition Zposition Xrotation Yrotation Zrotation
		JOINT mixamorig:RightLeg
		{
			OFFSET -0.000002 -44.370117 0.345942
			CHANNELS 6 Xposition Yposition Zposition Xrotation Yrotation Zrotation
			JOINT mixamorig:RightFoot
			{
				OFFSET 0.000003 -44.423679 -3.043532
				CHANNELS 6 Xposition Yposition Zposition Xrotation Yrotation Zrotation
				JOINT mixamorig:RightToeBase
				{
					OFFSET -0.000002 -8.728671 10.710558
					CHANNELS 6 Xposition Yposition Zposition Xrotation Yrotation Zrotation
					JOINT mixamorig:RightToe_End
					{
						OFFSET -0.000001 -0.000679 9.278119
						CHANNELS 6 Xposition Yposition Zposition Xrotation Yrotation Zrotation
						End Site
						{
							OFFSET 0.000000 -0.067690 927.812134
						}
					}
				}
			}
		}
	}
	JOINT mixamorig:LeftUpLeg
	{
		OFFSET 8.207793 -6.751686 -1.599556
		CHANNELS 6 Xposition Yposition Zposition Xrotation Yrotation Zrotation
		JOINT mixamorig:LeftLeg
		{
			OFFSET -0.000004 -44.370014 0.346954
			CHANNELS 6 Xposition Yposition Zposition Xrotation Yrotation Zrotation
			JOINT mixamorig:LeftFoot
			{
				OFFSET -0.000001 -44.423672 -3.044401
				CHANNELS 6 Xposition Yposition Zposition Xrotation Yrotation Zrotation
				JOINT mixamorig:LeftToeBase
				{
					OFFSET -0.000002 -8.728669 10.710558
					CHANNELS 6 Xposition Yposition Zposition Xrotation Yrotation Zrotation
					JOINT mixamorig:LeftToe_End
					{
						OFFSET -0.000003 -0.000679 9.278133
						CHANNELS 6 Xposition Yposition Zposition Xrotation Yrotation Zrotation
						End Site
						{
							OFFSET 0.000000 -0.068021 927.813477
						}
					}
				}
			}
		}
	}
}
MOTION
Frames: 3
Frame Time: 0.033333
0.000006 104.270477 1.554256 0.000010 0.000003 -0.000113 -0.000005 10.181587 0.131522 0.000001 -0.000003 0.000084 -0.000000 9.893967 -1.470711 0.000001 0.000000 -0.000000 -0.000000 9.220802 -1.370642 0.000000 -0.000000 -0.000000 0.000001 16.740433 -2.049030 0.000000 -0.000000 -0.000000 0.000000 9.617859 1.685014 0.000000 0.000000 0.000000 0.000002 22.037384 7.501101 0.000000 -0.000000 0.000000 -4.569968 11.014880 -2.160881 0.000008 0.000001 -0.000038 -10.592875 -0.524776 -2.231894 75.518752 31.857095 -24.929828 -27.841528 0.000008 0.000562 -52.481049 109.565448 69.856197 -28.328808 0.000018 0.000031 -0.000320 -0.000046 0.000008 -2.464416 -1.573867 2.682365 -36.498793 -155.504939 14.613024 -3.215240 -1.872539 1.924634 150.379087 33.885392 24.878634 -2.654946 -1.527879 1.513074 149.488553 26.810630 -33.805523 -2.018833 -1.151995 1.108058 -0.000004 0.000003 0.000002 -9.108393 -0.517560 2.260149 107.280880 16.832562 -22.791288 -3.700063 0.000309 0.001530 102.753619 14.023588 -17.473620 -2.850069 0.000366 -0.000235 102.408680 11.296936 -14.026780 -2.772154 -0.000016 -0.000021 -0.000000 0.000000 -0.000001 -9.532604 0.000260 0.000275 98.513854 17.716952 -20.677110 -3.700075 0.000328 0.003979 96.412785 12.865762 -14.271064 -2.950044 0.000347 -0.001793 97.163491 10.726393 -12.140847 -2.946631 0.000001 -0.000158 0.000001 -0.000001 -0.000000 -9.103710 -0.042770 -1.864846 95.106969 20.021127 -21.797292 -3.379320 0.000330 -0.000803 94.086211 9.715637 -10.449281 -2.889746 0.000355 0.000635 97.735315 5.091661 -5.879642 -2.638830 -0.000012 0.000939 0.000001 -0.000000 -0.000001 -8.076769 -0.486401 -3.806006 86.389189 19.722702 -18.393746 -3.600036 0.000279 -0.003532 86.984078 6.743499 -6.068914 -2.100020 0.000330 -0.005513 87.240189 2.031784 -1.738288 -2.115764 -0.000034 -0.003684 0.000002 -0.000001 -0.000005 4.570446 11.014691 -2.160851 -0.000018 0.000010 -0.000021 10.592392 -0.524486 -2.232334 73.188025 -10.013556 7.443693 27.841822 0.000058 -0.000192 91.855130 -72.417149 74.194446 28.328823 -0.000029 0.000028 0.000020 -0.000088 -0.000000 2.466242 -1.575910 2.681808 -155.590384 -5.708939 44.437491 3.217878 -1.871851 1.916446 168.842905 -18.036197 48.468986 2.656109 -1.528705 1.514510 136.604781 -28.492682 62.767321 2.020903 -1.154052 1.115144 -0.000001 0.000002 0.000001 9.109376 -0.517901 2.259750 75.616437 -21.245377 16.549477 3.700045 0.000094 -0.000449 72.115173 -20.583801 15.076181 2.850057 0.000124 0.000216 67.956373 -15.991935 10.815181 2.774877 -0.000014 -0.000028 -0.000000 0.000001 -0.000002 9.533466 0.000166 -0.000078 74.879473 -20.647045 15.872226 3.700047 0.000127 -0.000371 76.276404 -18.380543 14.477213 2.950060 0.000124 -0.000188 74.771706 -20.218535 15.519610 2.952856 -0.000017 0.000063 -0.000000 0.000002 -0.000002 9.104590 -0.042898 -1.865217 71.352801 -18.801711 13.558968 3.150059 0.000155 -0.000103 75.344199 -15.220510 11.781314 2.950015 0.000137 -0.000061 77.974491 -15.679526 12.720068 2.644323 0.000028 0.000057 -0.000001 0.000001 -0.000002 8.077829 -0.486772 -3.806387 63.772698 -18.515702 11.968105 3.600003 0.000132 0.014584 63.941950 -15.597126 10.108625 2.100019 0.000133 0.007548 68.243767 -14.956939 10.511346 2.125501 -0.000017 0.007508 -0.000003 -0.000000 -0.000002 -8.207786 -6.751667 -1.599560 -0.077001 -0.000003 0.000080 -0.000002 -44.370110 0.345938 0.153719 -0.000000 -0.000000 0.000000 -44.423679 -3.043532 -0.076700 0.000000 -0.000002 -0.000006 -8.728667 10.710559 -0.000009 -0.000000 -0.000000 -0.000001 -0.000679 9.278123 0.000000 -0.000000 -0.000000 8.207792 -6.751710 -1.599556 -0.074518 -0.000003 0.000081 -0.000002 -44.370014 0.346960 0.148822 0.000002 0.000000 -0.000001 -44.423664 -3.044403 -0.074314 0.000000 -0.000002 -0.000004 -8.728671 10.710558 0.000007 -0.000000 -0.000000 0.000000 -0.000680 9.278137 -0.000000 0.000000 -0.000001 
0.000006 104.270477 1.554256 0.000010 0.000003 -0.000113 -0.000005 10.181587 0.131522 0.000001 -0.000003 0.000084 -0.000000 9.893967 -1.470711 0.000001 0.000000 -0.000000 -0.000000 9.220802 -1.370642 0.000000 -0.000000 -0.000000 0.000001 16.740433 -2.049030 0.000000 -0.000000 -0.000000 0.000000 9.617859 1.685014 0.000000 0.000000 0.000000 0.000002 22.037384 7.501101 0.000000 -0.000000 0.000000 -4.569968 11.014880 -2.160881 0.000008 0.000001 -0.000038 -10.592867 -0.524791 -2.231874 75.990164 34.777356 -27.492322 -27.841511 0.000026 0.000539 -49.377702 107.393544 64.072420 -28.328840 -0.000002 0.000028 -0.000323 -0.000047 0.000006 -2.464406 -1.573820 2.682345 -44.101606 -159.255942 -1.196381 -3.215242 -1.872486 1.924610 145.820891 33.547598 34.233885 -2.654951 -1.527842 1.513048 149.869199 28.256711 -20.685023 -2.018834 -1.152014 1.108042 -0.000004 -0.000001 0.000002 -9.108371 -0.517576 2.260146 105.504996 15.500708 -20.357244 -3.700074 0.000297 0.001533 103.161292 13.423921 -16.850094 -2.850096 0.000367 -0.000231 101.848243 11.411933 -14.029431 -2.772140 -0.000015 -0.000017 0.000001 -0.000003 -0.000000 -9.532583 0.000260 0.000258 95.960299 15.940316 -17.822258 -3.700070 0.000335 0.003993 96.111362 11.800411 -13.015476 -2.950044 0.000349 -0.001794 98.080936 11.389459 -13.098553 -2.946627 0.000003 -0.000156 -0.000002 -0.000001 -0.000002 -9.103704 -0.042777 -1.864864 93.708597 18.607747 -19.780839 -3.379331 0.000335 -0.000804 93.846867 7.856836 -8.419111 -2.889734 0.000361 0.000651 100.694112 5.550207 -6.747964 -2.638793 -0.000017 0.000942 0.000000 -0.000002 -0.000000 -8.076768 -0.486423 -3.806019 85.368608 20.920157 -19.181635 -3.600017 0.000282 -0.003534 86.284250 7.168343 -6.391614 -2.099998 0.000334 -0.005515 89.835361 2.771432 -2.553956 -2.115784 -0.000051 -0.003677 -0.000002 0.000004 -0.000006 4.570446 11.014691 -2.160851 -0.000018 0.000010 -0.000021 10.592392 -0.524481 -2.232361 73.262392 -9.504154 7.073786 27.841816 0.000051 -0.000222 91.863770 -73.175355 74.967931 28.328831 -0.000028 0.000027 0.000020 -0.000089 0.000000 2.466212 -1.575858 2.681793 -156.930126 -16.868199 30.611907 3.217851 -1.871972 1.916518 163.396293 -6.738398 86.626155 2.656086 -1.528720 1.514530 138.927359 -27.002229 76.116216 2.020898 -1.154082 1.115143 0.000000 0.000000 0.000006 9.109392 -0.517919 2.259746 75.404100 -25.079169 19.499070 3.700048 0.000112 -0.000445 72.864923 -17.440092 12.931851 2.850030 0.000146 0.000200 71.581270 -12.855465 9.286196 2.774870 -0.000030 -0.000028 0.000002 0.000000 0.000001 9.533470 0.000157 -0.000074 73.659567 -22.638394 17.043923 3.700045 0.000142 -0.000365 78.785009 -13.954690 11.475637 2.950049 0.000135 -0.000202 78.942439 -12.048883 9.936363 2.952854 -0.000046 0.000060 0.000002 -0.000002 0.000002 9.104594 -0.042899 -1.865210 73.210373 -21.175009 15.810910 3.150064 0.000180 -0.000077 78.750927 -14.273217 11.735237 2.949993 0.000161 -0.000083 78.882763 -10.698271 8.810307 2.644307 0.000031 0.000054 -0.000000 0.000002 0.000001 8.077837 -0.486785 -3.806399 67.290061 -21.416540 14.770007 3.600011 0.000123 0.014577 66.883535 -17.224610 11.784835 2.100028 0.000123 0.007542 69.203852 -12.358639 8.883276 2.125487 -0.000017 0.007516 -0.000004 -0.000002 0.000004 -8.207786 -6.751667 -1.599560 -0.077001 -0.000003 0.000080 -0.000002 -44.370110 0.345938 0.153719 -0.000000 -0.000000 0.000000 -44.423679 -3.043532 -0.076700 0.000000 -0.000002 -0.000006 -8.728667 10.710559 -0.000009 -0.000000 -0.000000 -0.000001 -0.000679 9.278123 0.000000 -0.000000 -0.000000 8.207792 -6.751710 -1.599556 -0.074518 -0.000003 0.000081 -0.000002 -44.370014 0.346960 0.148822 0.000002 0.000000 -0.000001 -44.423664 -3.044403 -0.074314 0.000000 -0.000002 -0.000004 -8.728671 10.710558 0.000007 -0.000000 -0.000000 0.000000 -0.000680 9.278137 -0.000000 0.000000 -0.000001 
0.000006 104.270477 1.554256 0.000010 0.000003 -0.000113 -0.000005 10.181587 0.131522 0.000001 -0.000003 0.000084 -0.000000 9.893967 -1.470711 0.000001 0.000000 -0.000000 -0.000000 9.220802 -1.370642 0.000000 -0.000000 -0.000000 0.000001 16.740433 -2.049030 0.000000 -0.000000 -0.000000 0.000000 9.617859 1.685014 0.000000 0.000000 0.000000 0.000002 22.037384 7.501101 0.000000 -0.000000 0.000000 -4.569968 11.014880 -2.160881 0.000008 0.000001 -0.000038 -10.592867 -0.524793 -2.231867 75.898305 36.418060 -28.776793 -27.841513 0.000013 0.000558 -49.307597 105.760848 62.468480 -28.328823 0.000010 0.000028 -0.000321 -0.000044 0.000008 -2.464400 -1.573797 2.682328 -46.204328 -160.727014 -5.996034 -3.215222 -1.872497 1.924603 145.045487 33.410714 35.681953 -2.654962 -1.527838 1.513032 149.818629 28.426614 -19.202717 -2.018841 -1.152019 1.108049 -0.000001 0.000001 -0.000002 -9.108354 -0.517553 2.260144 104.996004 15.100000 -19.658475 -3.700079 0.000310 0.001540 103.080634 13.422100 -16.823821 -2.850090 0.000362 -0.000218 101.682372 11.689942 -14.328038 -2.772163 -0.000016 -0.000017 0.000000 -0.000000 -0.000000 -9.532575 0.000276 0.000243 95.582815 15.414644 -17.128455 -3.700083 0.000331 0.003980 96.305094 11.526453 -12.754637 -2.950046 0.000327 -0.001793 98.654870 11.428597 -13.276051 -2.946625 0.000014 -0.000156 -0.000001 -0.000001 0.000000 -9.103687 -0.042752 -1.864861 93.582368 18.031933 -19.127373 -3.379336 0.000313 -0.000808 93.674248 7.397577 -7.904318 -2.889725 0.000362 0.000659 100.806441 5.614779 -6.839439 -2.638808 0.000016 0.000938 0.000001 -0.000000 -0.000000 -8.076747 -0.486403 -3.806025 84.998822 20.312747 -18.501328 -3.600037 0.000281 -0.003528 85.968982 7.072024 -6.267133 -2.100010 0.000332 -0.005509 89.796060 2.932115 -2.711796 -2.115754 -0.000068 -0.003680 0.000003 0.000003 -0.000003 4.570446 11.014691 -2.160851 -0.000018 0.000010 -0.000021 10.592400 -0.524477 -2.232355 73.292677 -12.919407 9.629320 27.841812 0.000063 -0.000190 91.884684 -74.253882 76.076129 28.328825 -0.000028 0.000021 0.000021 -0.000089 -0.000000 2.466219 -1.575859 2.681809 -151.256629 -18.442875 26.941676 3.217706 -1.872041 1.916612 149.935397 -0.136029 133.526127 2.656080 -1.528740 1.514565 148.089785 -20.135609 86.387823 2.020883 -1.154063 1.115144 -0.000000 0.000002 0.000003 9.109397 -0.517922 2.259759 73.462154 -28.285992 21.287787 3.700057 0.000108 -0.000454 71.544763 -22.065657 16.006564 2.850055 0.000133 0.000219 70.638704 -16.729647 11.894774 2.774886 -0.000028 -0.000027 -0.000001 0.000001 -0.000003 9.533461 0.000165 -0.000076 73.873120 -24.238236 18.333903 3.700045 0.000140 -0.000366 78.703512 -16.153145 13.271997 2.950067 0.000149 -0.000206 79.310388 -13.302832 11.044641 2.952866 -0.000030 0.000064 -0.000001 -0.000002 -0.000000 9.104590 -0.042899 -1.865216 73.916266 -22.366441 16.923226 3.150046 0.000165 -0.000089 78.995461 -15.305841 12.641761 2.950015 0.000161 -0.000101 80.507009 -10.654043 9.029262 2.644319 0.000017 0.000059 -0.000001 0.000001 -0.000001 8.077851 -0.486747 -3.806395 68.310573 -21.946759 15.421751 3.600021 0.000127 0.014569 67.854391 -16.913510 11.787856 2.100033 0.000154 0.007552 70.664113 -11.936780 8.823401 2.125487 -0.000020 0.007512 0.000002 -0.000002 0.000000 -8.207786 -6.751667 -1.599560 -0.077001 -0.000003 0.000080 -0.000002 -44.370110 0.345938 0.153719 -0.000000 -0.000000 0.000000 -44.423679 -3.043532 -0.076700 0.000000 -0.000002 -0.000006 -8.728667 10.710559 -0.000009 -0.000000 -0.000000 -0.000001 -0.000679 9.278123 0.000000 -0.000000 -0.000000 8.207792 -6.751710 -1.599556 -0.074518 -0.000003 0.000081 -0.000002 -44.370014 0.346960 0.148822 0.000002 0.000000 -0.000001 -44.423664 -3.044403 -0.074314 0.000000 -0.000002 -0.000004 -8.728671 10.710558 0.000007 -0.000000 -0.000000 0.000000 -0.000680 9.278137 -0.000000 0.000000 -0.000001 
